<?xml version="1.0" encoding="UTF-8"?>
<svg id="Layer_1" xmlns="http://www.w3.org/2000/svg" xmlns:xlink="http://www.w3.org/1999/xlink" version="1.1" viewBox="0 0 1554.1 290.9">
  <!-- Generator: Adobe Illustrator 30.2.1, SVG Export Plug-In . SVG Version: 2.1.1 Build 1)  -->
  <defs>
    <style>
      .st0 {
        fill: url(#linear-gradient1);
      }

      .st1 {
        fill: url(#linear-gradient);
      }

      .st2 {
        fill: #694de2;
      }

      .st3 {
        fill: #ededed;
      }

      .st4 {
        fill: #161616;
      }
    </style>
    <linearGradient id="linear-gradient" x1="-1032.2" y1="-1874.6" x2="-1032.2" y2="-2957.2" gradientUnits="userSpaceOnUse">
      <stop offset="0" stop-color="#694de2"/>
      <stop offset="1" stop-color="#161616"/>
    </linearGradient>
    <linearGradient id="linear-gradient1" x1="-2172.2" y1="-1874.6" x2="-2172.2" y2="-2957.2" xlink:href="#linear-gradient"/>
  </defs>
  <rect class="st4" x="-434.7" y="-4132.7" width="1085" height="1085"/>
  <rect class="st2" x="1845.3" y="-4132.7" width="1085" height="1085"/>
  <g>
    <g>
      <path class="st3" d="M2468.8-3722.4c0,7.6-6.2,13.8-13.8,13.8h-179.1c-3.7,0-7.2,1.5-9.8,4l-17.7,17.7c-2.6,2.6-4,6.1-4,9.8v171.1c0,3.7,1.5,7.2,4,9.8l21.1,21.1c2.6,2.6,6.1,4,9.8,4h175.6c7.6,0,13.8,6.2,13.8,13.8v35.2c0,7.6-6.2,13.8-13.8,13.8h-196.7c-7.6,0-13.8-6.2-13.8-13.8v-20.3c0-3.7-1.5-7.2-4-9.8l-15-15c-2.6-2.6-6.1-4-9.8-4h-19.5c-7.6,0-13.8-6.2-13.8-13.8v-209.9c0-7.6,6.2-13.8,13.8-13.8h16c3.7,0,7.2-1.5,9.8-4l18.5-18.5c2.6-2.6,4-6.1,4-9.8v-17.6c0-7.6,6.2-13.8,13.8-13.8h196.7c7.6,0,13.8,6.2,13.8,13.8v36Z"/>
      <rect class="st3" x="2315.8" y="-3622.4" width="153.1" height="64.4" rx="-1746.8" ry="-1746.8" transform="translate(3239.3 640.1) rotate(-45)"/>
    </g>
    <rect class="st3" x="2529.5" y="-3708.4" width="63.6" height="237.4" rx="-1616.9" ry="-1616.9"/>
  </g>
  <rect class="st2" x="705.3" y="-4132.7" width="1085" height="1085"/>
  <g>
    <g>
      <path class="st4" d="M1328.8-3722.4c0,7.6-6.2,13.8-13.8,13.8h-179.1c-3.7,0-7.2,1.5-9.8,4l-17.7,17.7c-2.6,2.6-4,6.1-4,9.8v171.1c0,3.7,1.5,7.2,4,9.8l21.1,21.1c2.6,2.6,6.1,4,9.8,4h175.6c7.6,0,13.8,6.2,13.8,13.8v35.2c0,7.6-6.2,13.8-13.8,13.8h-196.7c-7.6,0-13.8-6.2-13.8-13.8v-20.3c0-3.7-1.5-7.2-4-9.8l-15-15c-2.6-2.6-6.1-4-9.8-4h-19.5c-7.6,0-13.8-6.2-13.8-13.8v-209.9c0-7.6,6.2-13.8,13.8-13.8h16c3.7,0,7.2-1.5,9.8-4l18.5-18.5c2.6-2.6,4-6.1,4-9.8v-17.6c0-7.6,6.2-13.8,13.8-13.8h196.7c7.6,0,13.8,6.2,13.8,13.8v36Z"/>
      <rect class="st4" x="1175.8" y="-3622.4" width="153.1" height="64.4" rx="-1746.8" ry="-1746.8" transform="translate(2905.4 -166) rotate(-45)"/>
    </g>
    <rect class="st4" x="1389.5" y="-3708.4" width="63.6" height="237.4" rx="-1616.9" ry="-1616.9"/>
  </g>
  <rect class="st1" x="-1574.7" y="-2992.7" width="1085" height="1085"/>
  <g>
    <path class="st3" d="M-705.6-2497.1v18.9c11.4-6.7,25.3-7.6,36.8-.9,12,6.9,11.4,28.3,9.2,39.8-1.5,7.9-6.2,14-13.7,16.7-9.4,3.4-22.7,3.4-31.7-2.8l-1.6,4.6h-11.9v-86.2h13v9.8ZM-704.5-2461.2c-1.4,6.1-1.1,12.3-.1,18.4,1.5,3.6,3.5,6.9,7.3,8,8,2.4,21.9,2.4,24.4-8,2-8.6,2.8-24.8-9.2-27.3-7.7-1.6-20.1-1.1-22.4,8.8Z"/>
    <path class="st3" d="M-902.3-2420.7v-36.2c0-10.6-9.3-13.4-16.2-13.4s-16.1,2.9-16.2,12.6v37h-13v-86.2h13v28.6c4.5-3.6,11.6-5.3,18.5-5.3,5.3,0,10.4,1,14.3,2.6,7.3,3.1,12.6,10,12.6,18.3v42s-13,0-13,0Z"/>
    <polygon class="st3" points="-1179.2 -2470.1 -1179.2 -2420.7 -1192.1 -2420.7 -1192.1 -2483.3 -1152 -2483.3 -1152 -2470.1 -1179.2 -2470.1"/>
    <path class="st3" d="M-1117.4-2483.6h-8.6c-14,0-25.3,11.3-25.3,25.3v12.7c0,14,11.3,25.3,25.3,25.3h8.6c14,0,25.3-11.3,25.3-25.3v-12.7c0-14-11.3-25.3-25.3-25.3ZM-1104.7-2448.4c0,8-6.5,14.5-14.5,14.5h-4.9c-8,0-14.5-6.5-14.5-14.5v-7.2c0-8,6.5-14.5,14.5-14.5h4.9c8,0,14.5,6.5,14.5,14.5v7.2Z"/>
    <polygon class="st3" points="-1013.2 -2483.3 -1023.8 -2435.3 -1032.4 -2483.3 -1044.4 -2483.3 -1056.4 -2483.3 -1064.9 -2435.3 -1075.6 -2483.3 -1089.7 -2483.3 -1075.8 -2420.7 -1053.1 -2420.7 -1044.4 -2469.6 -1035.7 -2420.7 -1012.9 -2420.7 -999.1 -2483.3 -1013.2 -2483.3"/>
    <path class="st3" d="M-956.2-2433.8v13.2h-12.6c-9.1,0-16.4-7.3-16.4-16.4v-33h-9v-13.2h9v-17.1h13v17.1h16v13.2h-16v28.3c0,4.4,3.6,8,8,8h8Z"/>
    <path class="st3" d="M-810.7-2420.7v-36.2c0-10.6-9.3-13.4-16.2-13.4s-16.1,2.9-16.2,12.6v37h-13v-86.2h13v28.6c4.5-3.6,11.6-5.3,18.5-5.3,5.3,0,10.4,1,14.3,2.6,7.3,3.1,12.6,10,12.6,18.3v42s-13,0-13,0Z"/>
    <path class="st3" d="M-774.7-2483.2v36.2c0,10.6,9.3,13.4,16.2,13.4s16.1-2.9,16.2-12.6v-37h13v62.6h-11.3l-1.6-4.9c-4.5,3.6-11.6,5.3-18.5,5.3-5.3,0-10.4-1-14.3-2.6-7.3-3.1-12.6-10-12.6-18.3v-42s13,0,13,0Z"/>
    <path class="st3" d="M-1215.4-2483.2l-1.6,4.6c-9-6.1-22.4-6.1-31.7-2.8-7.5,2.7-12.2,8.8-13.7,16.7-2.2,11.5-2.8,32.9,9.2,39.8,11.5,6.7,25.5,5.8,36.8-.9v18.9h0c0,.1-42,.1-42,.1v13.2h54.9v-89.7h-11.9ZM-1217.4-2442.7c-2.3,10-14.7,10.5-22.4,8.8-11.9-2.5-11.2-18.7-9.2-27.3,2.5-10.4,16.4-10.4,24.4-8,3.8,1.1,5.8,4.4,7.3,8,1,6.1,1.3,12.4-.1,18.4Z"/>
    <g>
      <g>
        <path class="st2" d="M-1330.3-2487c0,2-1.6,3.7-3.7,3.7h-47.5c-1,0-1.9.4-2.6,1.1l-4.7,4.7c-.7.7-1.1,1.6-1.1,2.6v45.4c0,1,.4,1.9,1.1,2.6l5.6,5.6c.7.7,1.6,1.1,2.6,1.1h46.5c2,0,3.7,1.6,3.7,3.7v9.3c0,2-1.6,3.7-3.7,3.7h-52.1c-2,0-3.7-1.6-3.7-3.7v-5.4c0-1-.4-1.9-1.1-2.6l-4-4c-.7-.7-1.6-1.1-2.6-1.1h-5.2c-2,0-3.7-1.6-3.7-3.7v-55.6c0-2,1.6-3.7,3.7-3.7h4.2c1,0,1.9-.4,2.6-1.1l4.9-4.9c.7-.7,1.1-1.6,1.1-2.6v-4.7c0-2,1.6-3.7,3.7-3.7h52.1c2,0,3.7,1.6,3.7,3.7v9.5Z"/>
        <rect class="st2" x="-1370.8" y="-2460.5" width="40.6" height="17.1" rx="-1213.2" ry="-1213.2" transform="translate(1338.2 -1673.2) rotate(-45)"/>
      </g>
      <rect class="st2" x="-1314.2" y="-2483.3" width="16.9" height="62.9" rx="-1178.7" ry="-1178.7"/>
    </g>
  </g>
  <rect class="st0" x="-2714.7" y="-2992.7" width="1085" height="1085"/>
  <g>
    <path class="st3" d="M-1845.6-2497.1v18.9c11.4-6.7,25.3-7.6,36.8-.9,12,6.9,11.4,28.3,9.2,39.8-1.5,7.9-6.2,14-13.7,16.7-9.4,3.4-22.7,3.4-31.7-2.8l-1.6,4.6h-11.9v-86.2h13v9.8ZM-1844.5-2461.2c-1.4,6.1-1.1,12.3-.1,18.4,1.5,3.6,3.5,6.9,7.3,8,8,2.4,21.9,2.4,24.4-8,2-8.6,2.8-24.8-9.2-27.3-7.7-1.6-20.1-1.1-22.4,8.8Z"/>
    <path class="st3" d="M-2042.3-2420.7v-36.2c0-10.6-9.3-13.4-16.2-13.4s-16.1,2.9-16.2,12.6v37h-13v-86.2h13v28.6c4.5-3.6,11.6-5.3,18.5-5.3,5.3,0,10.4,1,14.3,2.6,7.3,3.1,12.6,10,12.6,18.3v42s-13,0-13,0Z"/>
    <polygon class="st3" points="-2319.2 -2470.1 -2319.2 -2420.7 -2332.1 -2420.7 -2332.1 -2483.3 -2292 -2483.3 -2292 -2470.1 -2319.2 -2470.1"/>
    <path class="st3" d="M-2257.4-2483.6h-8.6c-14,0-25.3,11.3-25.3,25.3v12.7c0,14,11.3,25.3,25.3,25.3h8.6c14,0,25.3-11.3,25.3-25.3v-12.7c0-14-11.3-25.3-25.3-25.3ZM-2244.7-2448.4c0,8-6.5,14.5-14.5,14.5h-4.9c-8,0-14.5-6.5-14.5-14.5v-7.2c0-8,6.5-14.5,14.5-14.5h4.9c8,0,14.5,6.5,14.5,14.5v7.2Z"/>
    <polygon class="st3" points="-2153.2 -2483.3 -2163.8 -2435.3 -2172.4 -2483.3 -2184.4 -2483.3 -2196.4 -2483.3 -2204.9 -2435.3 -2215.6 -2483.3 -2229.7 -2483.3 -2215.8 -2420.7 -2193.1 -2420.7 -2184.4 -2469.6 -2175.7 -2420.7 -2152.9 -2420.7 -2139.1 -2483.3 -2153.2 -2483.3"/>
    <path class="st3" d="M-2096.2-2433.8v13.2h-12.6c-9.1,0-16.4-7.3-16.4-16.4v-33h-9v-13.2h9v-17.1h13v17.1h16v13.2h-16v28.3c0,4.4,3.6,8,8,8h8Z"/>
    <path class="st3" d="M-1950.7-2420.7v-36.2c0-10.6-9.3-13.4-16.2-13.4s-16.1,2.9-16.2,12.6v37h-13v-86.2h13v28.6c4.5-3.6,11.6-5.3,18.5-5.3,5.3,0,10.4,1,14.3,2.6,7.3,3.1,12.6,10,12.6,18.3v42s-13,0-13,0Z"/>
    <path class="st3" d="M-1914.7-2483.2v36.2c0,10.6,9.3,13.4,16.2,13.4s16.1-2.9,16.2-12.6v-37h13v62.6h-11.3l-1.6-4.9c-4.5,3.6-11.6,5.3-18.5,5.3-5.3,0-10.4-1-14.3-2.6-7.3-3.1-12.6-10-12.6-18.3v-42s13,0,13,0Z"/>
    <path class="st3" d="M-2355.4-2483.2l-1.6,4.6c-9-6.1-22.4-6.1-31.7-2.8-7.5,2.7-12.2,8.8-13.7,16.7-2.2,11.5-2.8,32.9,9.2,39.8,11.5,6.7,25.5,5.8,36.8-.9v18.9h0c0,.1-42,.1-42,.1v13.2h54.9v-89.7h-11.9ZM-2357.4-2442.7c-2.3,10-14.7,10.5-22.4,8.8-11.9-2.5-11.2-18.7-9.2-27.3,2.5-10.4,16.4-10.4,24.4-8,3.8,1.1,5.8,4.4,7.3,8,1,6.1,1.3,12.4-.1,18.4Z"/>
    <g>
      <g>
        <path class="st3" d="M-2470.3-2487c0,2-1.6,3.7-3.7,3.7h-47.5c-1,0-1.9.4-2.6,1.1l-4.7,4.7c-.7.7-1.1,1.6-1.1,2.6v45.4c0,1,.4,1.9,1.1,2.6l5.6,5.6c.7.7,1.6,1.1,2.6,1.1h46.5c2,0,3.7,1.6,3.7,3.7v9.3c0,2-1.6,3.7-3.7,3.7h-52.1c-2,0-3.7-1.6-3.7-3.7v-5.4c0-1-.4-1.9-1.1-2.6l-4-4c-.7-.7-1.6-1.1-2.6-1.1h-5.2c-2,0-3.7-1.6-3.7-3.7v-55.6c0-2,1.6-3.7,3.7-3.7h4.2c1,0,1.9-.4,2.6-1.1l4.9-4.9c.7-.7,1.1-1.6,1.1-2.6v-4.7c0-2,1.6-3.7,3.7-3.7h52.1c2,0,3.7,1.6,3.7,3.7v9.5Z"/>
        <rect class="st3" x="-2510.8" y="-2460.5" width="40.6" height="17.1" rx="-1214.9" ry="-1214.9" transform="translate(1004.3 -2479.3) rotate(-45)"/>
      </g>
      <rect class="st3" x="-2454.2" y="-2483.3" width="16.9" height="62.9" rx="-1210.2" ry="-1210.2"/>
    </g>
  </g>
  <g>
    <path class="st4" d="M1432.8-2888v48.5c29.1-17.3,65-19.5,94.6-2.3,30.7,17.8,29.2,72.8,23.6,102.2-3.9,20.3-15.9,36-35.1,43-24.1,8.6-58.3,8.6-81.5-7.1l-4.2,11.9h-30.7v-221.3h33.3v25.1ZM1435.5-2796c-3.7,15.6-2.9,31.6-.4,47.4,3.9,9.3,9,17.7,18.8,20.7,20.5,6.1,56.2,6.1,62.5-20.6,5.3-22.1,7.2-63.6-23.5-70.1-19.8-4.2-51.5-2.9-57.5,22.7Z"/>
    <path class="st4" d="M927.7-2691.9v-92.8c0-27.3-23.9-34.4-41.7-34.4s-41.4,7.5-41.7,32.4v94.9h-33.3v-221.3h33.3v73.3c11.6-9.2,29.8-13.6,47.5-13.6,13.5,0,26.8,2.6,36.7,6.7,18.7,7.9,32.4,25.6,32.4,46.9v107.9s-33.3,0-33.3,0Z"/>
    <polygon class="st4" points="216.9 -2818.7 216.9 -2691.9 183.7 -2691.9 183.7 -2852.5 286.7 -2852.5 286.7 -2818.7 216.9 -2818.7"/>
    <path class="st4" d="M375.5-2853.5h-22c-35.9,0-65,29.1-65,65v32.5c0,35.9,29.1,65,65,65h22c35.9,0,65-29.1,65-65v-32.5c0-35.9-29.1-65-65-65ZM408.1-2762.9c0,20.6-16.7,37.3-37.3,37.3h-12.7c-20.6,0-37.3-16.7-37.3-37.3v-18.6c0-20.6,16.7-37.3,37.3-37.3h12.7c20.6,0,37.3,16.7,37.3,37.3v18.6Z"/>
    <polygon class="st4" points="643.1 -2852.5 615.8 -2729.3 593.8 -2852.5 563 -2852.5 532.2 -2852.5 510.2 -2729.3 482.9 -2852.5 446.7 -2852.5 482.2 -2691.9 540.7 -2691.9 563 -2817.5 585.3 -2691.9 643.8 -2691.9 679.3 -2852.5 643.1 -2852.5"/>
    <path class="st4" d="M789.5-2725.7v33.8h-32.3c-23.3,0-42.1-18.8-42.1-42.1v-84.8h-23.1v-33.8h23.1v-43.8h33.3v43.8h41.1v33.8h-41.1v72.6c0,11.3,9.2,20.5,20.5,20.5h20.6Z"/>
    <path class="st4" d="M1162.9-2691.9v-92.8c0-27.3-23.9-34.4-41.7-34.4s-41.4,7.5-41.7,32.4v94.9h-33.3v-221.3h33.3v73.3c11.6-9.2,29.8-13.6,47.5-13.6,13.5,0,26.8,2.6,36.7,6.7,18.7,7.9,32.4,25.6,32.4,46.9v107.9s-33.3,0-33.3,0Z"/>
    <path class="st4" d="M1255.3-2852.4v92.8c0,27.3,23.9,34.4,41.7,34.4s41.4-7.5,41.7-32.4v-94.9h33.3v160.6h-29.1l-4.2-12.6c-11.6,9.2-29.8,13.6-47.5,13.6-13.5,0-26.8-2.6-36.7-6.7-18.7-7.9-32.4-25.6-32.4-46.9v-107.9s33.3,0,33.3,0Z"/>
    <path class="st4" d="M124-2852.5l-4.2,11.9c-23.2-15.7-57.4-15.7-81.5-7.1-19.3,6.9-31.3,22.7-35.1,43-5.6,29.5-7.1,84.4,23.6,102.2,29.6,17.2,65.4,14.9,94.6-2.3v48.8H13.6v33.8h141v-230.2h-30.7ZM118.7-2748.3c-6,25.6-37.7,26.9-57.5,22.7-30.7-6.4-28.7-47.9-23.5-70.1,6.3-26.8,42.1-26.8,62.5-20.6,9.8,2.9,15,11.4,18.8,20.7,2.5,15.7,3.3,31.7-.4,47.4Z"/>
    <g>
      <g>
        <path class="st4" d="M-171-2862.1c0,5.2-4.2,9.4-9.4,9.4h-121.8c-2.5,0-4.9,1-6.6,2.7l-12,12c-1.8,1.8-2.7,4.1-2.7,6.6v116.4c0,2.5,1,4.9,2.7,6.6l14.4,14.4c1.8,1.8,4.1,2.7,6.6,2.7h119.5c5.2,0,9.4,4.2,9.4,9.4v24c0,5.2-4.2,9.4-9.4,9.4h-133.9c-5.2,0-9.4-4.2-9.4-9.4v-13.8c0-2.5-1-4.9-2.7-6.6l-10.2-10.2c-1.8-1.8-4.1-2.7-6.6-2.7h-13.3c-5.2,0-9.4-4.2-9.4-9.4v-142.8c0-5.2,4.2-9.4,9.4-9.4h10.9c2.5,0,4.9-1,6.6-2.7l12.6-12.6c1.8-1.8,2.7-4.1,2.7-6.6v-11.9c0-5.2,4.2-9.4,9.4-9.4h133.9c5.2,0,9.4,4.2,9.4,9.4v24.5Z"/>
        <rect class="st4" x="-275.1" y="-2794.1" width="104.1" height="43.8" rx="-1353.3" ry="-1353.3" transform="translate(1894.9 -969.7) rotate(-45)"/>
      </g>
      <rect class="st4" x="-129.7" y="-2852.6" width="43.3" height="161.5" rx="-1264.8" ry="-1264.8"/>
    </g>
  </g>
  <g>
    <path class="st3" d="M1432.8-2572.4v48.5c29.1-17.3,65-19.5,94.6-2.3,30.7,17.8,29.2,72.8,23.6,102.2-3.9,20.3-15.9,36-35.1,43-24.1,8.6-58.3,8.6-81.5-7.1l-4.2,11.9h-30.7v-221.3h33.3v25.1ZM1435.5-2480.4c-3.7,15.6-2.9,31.6-.4,47.4,3.9,9.3,9,17.7,18.8,20.7,20.5,6.1,56.2,6.1,62.5-20.6,5.3-22.1,7.2-63.6-23.5-70.1-19.8-4.2-51.5-2.9-57.5,22.7Z"/>
    <path class="st3" d="M927.7-2376.3v-92.8c0-27.3-23.9-34.4-41.7-34.4s-41.4,7.5-41.7,32.4v94.9h-33.3v-221.3h33.3v73.3c11.6-9.2,29.8-13.6,47.5-13.6,13.5,0,26.8,2.6,36.7,6.7,18.7,7.9,32.4,25.6,32.4,46.9v107.9s-33.3,0-33.3,0Z"/>
    <polygon class="st3" points="216.9 -2503.2 216.9 -2376.3 183.7 -2376.3 183.7 -2537 286.7 -2537 286.7 -2503.2 216.9 -2503.2"/>
    <path class="st3" d="M375.5-2537.9h-22c-35.9,0-65,29.1-65,65v32.5c0,35.9,29.1,65,65,65h22c35.9,0,65-29.1,65-65v-32.5c0-35.9-29.1-65-65-65ZM408.1-2447.3c0,20.6-16.7,37.3-37.3,37.3h-12.7c-20.6,0-37.3-16.7-37.3-37.3v-18.6c0-20.6,16.7-37.3,37.3-37.3h12.7c20.6,0,37.3,16.7,37.3,37.3v18.6Z"/>
    <polygon class="st3" points="643.1 -2537 615.8 -2413.8 593.8 -2537 563 -2537 532.2 -2537 510.2 -2413.8 482.9 -2537 446.7 -2537 482.2 -2376.3 540.7 -2376.3 563 -2502 585.3 -2376.3 643.8 -2376.3 679.3 -2537 643.1 -2537"/>
    <path class="st3" d="M789.5-2410.1v33.8h-32.3c-23.3,0-42.1-18.8-42.1-42.1v-84.8h-23.1v-33.8h23.1v-43.8h33.3v43.8h41.1v33.8h-41.1v72.6c0,11.3,9.2,20.5,20.5,20.5h20.6Z"/>
    <path class="st3" d="M1162.9-2376.3v-92.8c0-27.3-23.9-34.4-41.7-34.4s-41.4,7.5-41.7,32.4v94.9h-33.3v-221.3h33.3v73.3c11.6-9.2,29.8-13.6,47.5-13.6,13.5,0,26.8,2.6,36.7,6.7,18.7,7.9,32.4,25.6,32.4,46.9v107.9s-33.3,0-33.3,0Z"/>
    <path class="st3" d="M1255.3-2536.9v92.8c0,27.3,23.9,34.4,41.7,34.4s41.4-7.5,41.7-32.4v-94.9h33.3v160.6h-29.1l-4.2-12.6c-11.6,9.2-29.8,13.6-47.5,13.6-13.5,0-26.8-2.6-36.7-6.7-18.7-7.9-32.4-25.6-32.4-46.9v-107.9s33.3,0,33.3,0Z"/>
    <path class="st3" d="M124-2536.9l-4.2,11.9c-23.2-15.7-57.4-15.7-81.5-7.1-19.3,6.9-31.3,22.7-35.1,43-5.6,29.5-7.1,84.4,23.6,102.2,29.6,17.2,65.4,14.9,94.6-2.3v48.8H13.6v33.8h141v-230.2h-30.7ZM118.7-2432.8c-6,25.6-37.7,26.9-57.5,22.7-30.7-6.4-28.7-47.9-23.5-70.1,6.3-26.8,42.1-26.8,62.5-20.6,9.8,2.9,15,11.4,18.8,20.7,2.5,15.7,3.3,31.7-.4,47.4Z"/>
    <g>
      <g>
        <path class="st3" d="M-171-2546.5c0,5.2-4.2,9.4-9.4,9.4h-121.8c-2.5,0-4.9,1-6.6,2.7l-12,12c-1.8,1.8-2.7,4.1-2.7,6.6v116.4c0,2.5,1,4.9,2.7,6.6l14.4,14.4c1.8,1.8,4.1,2.7,6.6,2.7h119.5c5.2,0,9.4,4.2,9.4,9.4v24c0,5.2-4.2,9.4-9.4,9.4h-133.9c-5.2,0-9.4-4.2-9.4-9.4v-13.8c0-2.5-1-4.9-2.7-6.6l-10.2-10.2c-1.8-1.8-4.1-2.7-6.6-2.7h-13.3c-5.2,0-9.4-4.2-9.4-9.4v-142.8c0-5.2,4.2-9.4,9.4-9.4h10.9c2.5,0,4.9-1,6.6-2.7l12.6-12.6c1.8-1.8,2.7-4.1,2.7-6.6v-11.9c0-5.2,4.2-9.4,9.4-9.4h133.9c5.2,0,9.4,4.2,9.4,9.4v24.5Z"/>
        <rect class="st3" x="-275.1" y="-2478.5" width="104.1" height="43.8" rx="-1195.5" ry="-1195.5" transform="translate(1671.8 -877.3) rotate(-45)"/>
      </g>
      <rect class="st3" x="-129.7" y="-2537.1" width="43.3" height="161.5" rx="-1107" ry="-1107"/>
    </g>
  </g>
  <g>
    <path class="st2" d="M1432.8-2256.9v48.5c29.1-17.3,65-19.5,94.6-2.3,30.7,17.8,29.2,72.8,23.6,102.2-3.9,20.3-15.9,36-35.1,43-24.1,8.6-58.3,8.6-81.5-7.1l-4.2,11.9h-30.7v-221.3h33.3v25.1ZM1435.5-2164.9c-3.7,15.6-2.9,31.6-.4,47.4,3.9,9.3,9,17.7,18.8,20.7,20.5,6.1,56.2,6.1,62.5-20.6,5.3-22.1,7.2-63.6-23.5-70.1-19.8-4.2-51.5-2.9-57.5,22.7Z"/>
    <path class="st2" d="M927.7-2060.7v-92.8c0-27.3-23.9-34.4-41.7-34.4s-41.4,7.5-41.7,32.4v94.9h-33.3v-221.3h33.3v73.3c11.6-9.2,29.8-13.6,47.5-13.6,13.5,0,26.8,2.6,36.7,6.7,18.7,7.9,32.4,25.6,32.4,46.9v107.9s-33.3,0-33.3,0Z"/>
    <polygon class="st2" points="216.9 -2187.6 216.9 -2060.7 183.7 -2060.7 183.7 -2221.4 286.7 -2221.4 286.7 -2187.6 216.9 -2187.6"/>
    <path class="st2" d="M375.5-2222.3h-22c-35.9,0-65,29.1-65,65v32.5c0,35.9,29.1,65,65,65h22c35.9,0,65-29.1,65-65v-32.5c0-35.9-29.1-65-65-65ZM408.1-2131.8c0,20.6-16.7,37.3-37.3,37.3h-12.7c-20.6,0-37.3-16.7-37.3-37.3v-18.6c0-20.6,16.7-37.3,37.3-37.3h12.7c20.6,0,37.3,16.7,37.3,37.3v18.6Z"/>
    <polygon class="st2" points="643.1 -2221.4 615.8 -2098.2 593.8 -2221.4 563 -2221.4 532.2 -2221.4 510.2 -2098.2 482.9 -2221.4 446.7 -2221.4 482.2 -2060.7 540.7 -2060.7 563 -2186.4 585.3 -2060.7 643.8 -2060.7 679.3 -2221.4 643.1 -2221.4"/>
    <path class="st2" d="M789.5-2094.5v33.8h-32.3c-23.3,0-42.1-18.8-42.1-42.1v-84.8h-23.1v-33.8h23.1v-43.8h33.3v43.8h41.1v33.8h-41.1v72.6c0,11.3,9.2,20.5,20.5,20.5h20.6Z"/>
    <path class="st2" d="M1162.9-2060.7v-92.8c0-27.3-23.9-34.4-41.7-34.4s-41.4,7.5-41.7,32.4v94.9h-33.3v-221.3h33.3v73.3c11.6-9.2,29.8-13.6,47.5-13.6,13.5,0,26.8,2.6,36.7,6.7,18.7,7.9,32.4,25.6,32.4,46.9v107.9s-33.3,0-33.3,0Z"/>
    <path class="st2" d="M1255.3-2221.3v92.8c0,27.3,23.9,34.4,41.7,34.4s41.4-7.5,41.7-32.4v-94.9h33.3v160.6h-29.1l-4.2-12.6c-11.6,9.2-29.8,13.6-47.5,13.6-13.5,0-26.8-2.6-36.7-6.7-18.7-7.9-32.4-25.6-32.4-46.9v-107.9s33.3,0,33.3,0Z"/>
    <path class="st2" d="M124-2221.4l-4.2,11.9c-23.2-15.7-57.4-15.7-81.5-7.1-19.3,6.9-31.3,22.7-35.1,43-5.6,29.5-7.1,84.4,23.6,102.2,29.6,17.2,65.4,14.9,94.6-2.3v48.8H13.6v33.8h141v-230.2h-30.7ZM118.7-2117.2c-6,25.6-37.7,26.9-57.5,22.7-30.7-6.4-28.7-47.9-23.5-70.1,6.3-26.8,42.1-26.8,62.5-20.6,9.8,2.9,15,11.4,18.8,20.7,2.5,15.7,3.3,31.7-.4,47.4Z"/>
    <g>
      <g>
        <path class="st2" d="M-171-2231c0,5.2-4.2,9.4-9.4,9.4h-121.8c-2.5,0-4.9,1-6.6,2.7l-12,12c-1.8,1.8-2.7,4.1-2.7,6.6v116.4c0,2.5,1,4.9,2.7,6.6l14.4,14.4c1.8,1.8,4.1,2.7,6.6,2.7h119.5c5.2,0,9.4,4.2,9.4,9.4v24c0,5.2-4.2,9.4-9.4,9.4h-133.9c-5.2,0-9.4-4.2-9.4-9.4v-13.8c0-2.5-1-4.9-2.7-6.6l-10.2-10.2c-1.8-1.8-4.1-2.7-6.6-2.7h-13.3c-5.2,0-9.4-4.2-9.4-9.4v-142.8c0-5.2,4.2-9.4,9.4-9.4h10.9c2.5,0,4.9-1,6.6-2.7l12.6-12.6c1.8-1.8,2.7-4.1,2.7-6.6v-11.9c0-5.2,4.2-9.4,9.4-9.4h133.9c5.2,0,9.4,4.2,9.4,9.4v24.5Z"/>
        <rect class="st2" x="-275.1" y="-2163" width="104.1" height="43.8" rx="-1037.7" ry="-1037.7" transform="translate(1448.6 -784.8) rotate(-45)"/>
      </g>
      <rect class="st2" x="-129.7" y="-2221.5" width="43.3" height="161.5" rx="-949.3" ry="-949.3"/>
    </g>
  </g>
  <g>
    <path class="st4" d="M1432.8-1941.3v48.5c29.1-17.3,65-19.5,94.6-2.3,30.7,17.8,29.2,72.8,23.6,102.2-3.9,20.3-15.9,36-35.1,43-24.1,8.6-58.3,8.6-81.5-7.1l-4.2,11.9h-30.7v-221.3h33.3v25.1ZM1435.5-1849.3c-3.7,15.6-2.9,31.6-.4,47.4,3.9,9.3,9,17.7,18.8,20.7,20.5,6.1,56.2,6.1,62.5-20.6,5.3-22.1,7.2-63.6-23.5-70.1-19.8-4.2-51.5-2.9-57.5,22.7Z"/>
    <path class="st4" d="M927.7-1745.2v-92.8c0-27.3-23.9-34.4-41.7-34.4s-41.4,7.5-41.7,32.4v94.9h-33.3v-221.3h33.3v73.3c11.6-9.2,29.8-13.6,47.5-13.6,13.5,0,26.8,2.6,36.7,6.7,18.7,7.9,32.4,25.6,32.4,46.9v107.9s-33.3,0-33.3,0Z"/>
    <polygon class="st4" points="216.9 -1872 216.9 -1745.2 183.7 -1745.2 183.7 -1905.8 286.7 -1905.8 286.7 -1872 216.9 -1872"/>
    <path class="st4" d="M375.5-1906.8h-22c-35.9,0-65,29.1-65,65v32.5c0,35.9,29.1,65,65,65h22c35.9,0,65-29.1,65-65v-32.5c0-35.9-29.1-65-65-65ZM408.1-1816.2c0,20.6-16.7,37.3-37.3,37.3h-12.7c-20.6,0-37.3-16.7-37.3-37.3v-18.6c0-20.6,16.7-37.3,37.3-37.3h12.7c20.6,0,37.3,16.7,37.3,37.3v18.6Z"/>
    <polygon class="st4" points="643.1 -1905.8 615.8 -1782.7 593.8 -1905.8 563 -1905.8 532.2 -1905.8 510.2 -1782.7 482.9 -1905.8 446.7 -1905.8 482.2 -1745.2 540.7 -1745.2 563 -1870.9 585.3 -1745.2 643.8 -1745.2 679.3 -1905.8 643.1 -1905.8"/>
    <path class="st4" d="M789.5-1779v33.8h-32.3c-23.3,0-42.1-18.8-42.1-42.1v-84.8h-23.1v-33.8h23.1v-43.8h33.3v43.8h41.1v33.8h-41.1v72.6c0,11.3,9.2,20.5,20.5,20.5h20.6Z"/>
    <path class="st4" d="M1162.9-1745.2v-92.8c0-27.3-23.9-34.4-41.7-34.4s-41.4,7.5-41.7,32.4v94.9h-33.3v-221.3h33.3v73.3c11.6-9.2,29.8-13.6,47.5-13.6,13.5,0,26.8,2.6,36.7,6.7,18.7,7.9,32.4,25.6,32.4,46.9v107.9s-33.3,0-33.3,0Z"/>
    <path class="st4" d="M1255.3-1905.8v92.8c0,27.3,23.9,34.4,41.7,34.4s41.4-7.5,41.7-32.4v-94.9h33.3v160.6h-29.1l-4.2-12.6c-11.6,9.2-29.8,13.6-47.5,13.6-13.5,0-26.8-2.6-36.7-6.7-18.7-7.9-32.4-25.6-32.4-46.9v-107.9s33.3,0,33.3,0Z"/>
    <path class="st4" d="M124-1905.8l-4.2,11.9c-23.2-15.7-57.4-15.7-81.5-7.1-19.3,6.9-31.3,22.7-35.1,43-5.6,29.5-7.1,84.4,23.6,102.2,29.6,17.2,65.4,14.9,94.6-2.3v48.8H13.6v33.8h141v-230.2h-30.7ZM118.7-1801.7c-6,25.6-37.7,26.9-57.5,22.7-30.7-6.4-28.7-47.9-23.5-70.1,6.3-26.8,42.1-26.8,62.5-20.6,9.8,2.9,15,11.4,18.8,20.7,2.5,15.7,3.3,31.7-.4,47.4Z"/>
    <g>
      <g>
        <path class="st2" d="M-171-1915.4c0,5.2-4.2,9.4-9.4,9.4h-121.8c-2.5,0-4.9,1-6.6,2.7l-12,12c-1.8,1.8-2.7,4.1-2.7,6.6v116.4c0,2.5,1,4.9,2.7,6.6l14.4,14.4c1.8,1.8,4.1,2.7,6.6,2.7h119.5c5.2,0,9.4,4.2,9.4,9.4v24c0,5.2-4.2,9.4-9.4,9.4h-133.9c-5.2,0-9.4-4.2-9.4-9.4v-13.8c0-2.5-1-4.9-2.7-6.6l-10.2-10.2c-1.8-1.8-4.1-2.7-6.6-2.7h-13.3c-5.2,0-9.4-4.2-9.4-9.4v-142.8c0-5.2,4.2-9.4,9.4-9.4h10.9c2.5,0,4.9-1,6.6-2.7l12.6-12.6c1.8-1.8,2.7-4.1,2.7-6.6v-11.9c0-5.2,4.2-9.4,9.4-9.4h133.9c5.2,0,9.4,4.2,9.4,9.4v24.5Z"/>
        <rect class="st2" x="-275.1" y="-1847.4" width="104.1" height="43.8" rx="-879.9" ry="-879.9" transform="translate(1225.5 -692.4) rotate(-45)"/>
      </g>
      <rect class="st2" x="-129.7" y="-1905.9" width="43.3" height="161.5" rx="-791.5" ry="-791.5"/>
    </g>
  </g>
  <g>
    <path class="st3" d="M1432.8-1625.8v48.5c29.1-17.3,65-19.5,94.6-2.3,30.7,17.8,29.2,72.8,23.6,102.2-3.9,20.3-15.9,36-35.1,43-24.1,8.6-58.3,8.6-81.5-7.1l-4.2,11.9h-30.7v-221.3h33.3v25.1ZM1435.5-1533.8c-3.7,15.6-2.9,31.6-.4,47.4,3.9,9.3,9,17.7,18.8,20.7,20.5,6.1,56.2,6.1,62.5-20.6,5.3-22.1,7.2-63.6-23.5-70.1-19.8-4.2-51.5-2.9-57.5,22.7Z"/>
    <path class="st3" d="M927.7-1429.6v-92.8c0-27.3-23.9-34.4-41.7-34.4s-41.4,7.5-41.7,32.4v94.9h-33.3v-221.3h33.3v73.3c11.6-9.2,29.8-13.6,47.5-13.6,13.5,0,26.8,2.6,36.7,6.7,18.7,7.9,32.4,25.6,32.4,46.9v107.9s-33.3,0-33.3,0Z"/>
    <polygon class="st3" points="216.9 -1556.5 216.9 -1429.6 183.7 -1429.6 183.7 -1590.3 286.7 -1590.3 286.7 -1556.5 216.9 -1556.5"/>
    <path class="st3" d="M375.5-1591.2h-22c-35.9,0-65,29.1-65,65v32.5c0,35.9,29.1,65,65,65h22c35.9,0,65-29.1,65-65v-32.5c0-35.9-29.1-65-65-65ZM408.1-1500.7c0,20.6-16.7,37.3-37.3,37.3h-12.7c-20.6,0-37.3-16.7-37.3-37.3v-18.6c0-20.6,16.7-37.3,37.3-37.3h12.7c20.6,0,37.3,16.7,37.3,37.3v18.6Z"/>
    <polygon class="st3" points="643.1 -1590.3 615.8 -1467.1 593.8 -1590.3 563 -1590.3 532.2 -1590.3 510.2 -1467.1 482.9 -1590.3 446.7 -1590.3 482.2 -1429.6 540.7 -1429.6 563 -1555.3 585.3 -1429.6 643.8 -1429.6 679.3 -1590.3 643.1 -1590.3"/>
    <path class="st3" d="M789.5-1463.4v33.8h-32.3c-23.3,0-42.1-18.8-42.1-42.1v-84.8h-23.1v-33.8h23.1v-43.8h33.3v43.8h41.1v33.8h-41.1v72.6c0,11.3,9.2,20.5,20.5,20.5h20.6Z"/>
    <path class="st3" d="M1162.9-1429.6v-92.8c0-27.3-23.9-34.4-41.7-34.4s-41.4,7.5-41.7,32.4v94.9h-33.3v-221.3h33.3v73.3c11.6-9.2,29.8-13.6,47.5-13.6,13.5,0,26.8,2.6,36.7,6.7,18.7,7.9,32.4,25.6,32.4,46.9v107.9s-33.3,0-33.3,0Z"/>
    <path class="st3" d="M1255.3-1590.2v92.8c0,27.3,23.9,34.4,41.7,34.4s41.4-7.5,41.7-32.4v-94.9h33.3v160.6h-29.1l-4.2-12.6c-11.6,9.2-29.8,13.6-47.5,13.6-13.5,0-26.8-2.6-36.7-6.7-18.7-7.9-32.4-25.6-32.4-46.9v-107.9s33.3,0,33.3,0Z"/>
    <path class="st3" d="M124-1590.2l-4.2,11.9c-23.2-15.7-57.4-15.7-81.5-7.1-19.3,6.9-31.3,22.7-35.1,43-5.6,29.5-7.1,84.4,23.6,102.2,29.6,17.2,65.4,14.9,94.6-2.3v48.8H13.6v33.8h141v-230.2h-30.7ZM118.7-1486.1c-6,25.6-37.7,26.9-57.5,22.7-30.7-6.4-28.7-47.9-23.5-70.1,6.3-26.8,42.1-26.8,62.5-20.6,9.8,2.9,15,11.4,18.8,20.7,2.5,15.7,3.3,31.7-.4,47.4Z"/>
    <g>
      <g>
        <path class="st2" d="M-171-1599.9c0,5.2-4.2,9.4-9.4,9.4h-121.8c-2.5,0-4.9,1-6.6,2.7l-12,12c-1.8,1.8-2.7,4.1-2.7,6.6v116.4c0,2.5,1,4.9,2.7,6.6l14.4,14.4c1.8,1.8,4.1,2.7,6.6,2.7h119.5c5.2,0,9.4,4.2,9.4,9.4v24c0,5.2-4.2,9.4-9.4,9.4h-133.9c-5.2,0-9.4-4.2-9.4-9.4v-13.8c0-2.5-1-4.9-2.7-6.6l-10.2-10.2c-1.8-1.8-4.1-2.7-6.6-2.7h-13.3c-5.2,0-9.4-4.2-9.4-9.4v-142.8c0-5.2,4.2-9.4,9.4-9.4h10.9c2.5,0,4.9-1,6.6-2.7l12.6-12.6c1.8-1.8,2.7-4.1,2.7-6.6v-11.9c0-5.2,4.2-9.4,9.4-9.4h133.9c5.2,0,9.4,4.2,9.4,9.4v24.5Z"/>
        <rect class="st2" x="-275.1" y="-1531.8" width="104.1" height="43.8" rx="-722.1" ry="-722.1" transform="translate(1002.4 -600) rotate(-45)"/>
      </g>
      <rect class="st2" x="-129.7" y="-1590.4" width="43.3" height="161.5" rx="-633.7" ry="-633.7"/>
    </g>
  </g>
  <g>
    <path class="st3" d="M1432.8-1310.2v48.5c29.1-17.3,65-19.5,94.6-2.3,30.7,17.8,29.2,72.8,23.6,102.2-3.9,20.3-15.9,36-35.1,43-24.1,8.6-58.3,8.6-81.5-7.1l-4.2,11.9h-30.7v-221.3h33.3v25.1ZM1435.5-1218.2c-3.7,15.6-2.9,31.6-.4,47.4,3.9,9.3,9,17.7,18.8,20.7,20.5,6.1,56.2,6.1,62.5-20.6,5.3-22.1,7.2-63.6-23.5-70.1-19.8-4.2-51.5-2.9-57.5,22.7Z"/>
    <path class="st3" d="M927.7-1114v-92.8c0-27.3-23.9-34.4-41.7-34.4s-41.4,7.5-41.7,32.4v94.9h-33.3v-221.3h33.3v73.3c11.6-9.2,29.8-13.6,47.5-13.6,13.5,0,26.8,2.6,36.7,6.7,18.7,7.9,32.4,25.6,32.4,46.9v107.9s-33.3,0-33.3,0Z"/>
    <polygon class="st3" points="216.9 -1240.9 216.9 -1114 183.7 -1114 183.7 -1274.7 286.7 -1274.7 286.7 -1240.9 216.9 -1240.9"/>
    <path class="st3" d="M375.5-1275.6h-22c-35.9,0-65,29.1-65,65v32.5c0,35.9,29.1,65,65,65h22c35.9,0,65-29.1,65-65v-32.5c0-35.9-29.1-65-65-65ZM408.1-1185.1c0,20.6-16.7,37.3-37.3,37.3h-12.7c-20.6,0-37.3-16.7-37.3-37.3v-18.6c0-20.6,16.7-37.3,37.3-37.3h12.7c20.6,0,37.3,16.7,37.3,37.3v18.6Z"/>
    <polygon class="st3" points="643.1 -1274.7 615.8 -1151.5 593.8 -1274.7 563 -1274.7 532.2 -1274.7 510.2 -1151.5 482.9 -1274.7 446.7 -1274.7 482.2 -1114 540.7 -1114 563 -1239.7 585.3 -1114 643.8 -1114 679.3 -1274.7 643.1 -1274.7"/>
    <path class="st3" d="M789.5-1147.9v33.8h-32.3c-23.3,0-42.1-18.8-42.1-42.1v-84.8h-23.1v-33.8h23.1v-43.8h33.3v43.8h41.1v33.8h-41.1v72.6c0,11.3,9.2,20.5,20.5,20.5h20.6Z"/>
    <path class="st3" d="M1162.9-1114v-92.8c0-27.3-23.9-34.4-41.7-34.4s-41.4,7.5-41.7,32.4v94.9h-33.3v-221.3h33.3v73.3c11.6-9.2,29.8-13.6,47.5-13.6,13.5,0,26.8,2.6,36.7,6.7,18.7,7.9,32.4,25.6,32.4,46.9v107.9s-33.3,0-33.3,0Z"/>
    <path class="st3" d="M1255.3-1274.6v92.8c0,27.3,23.9,34.4,41.7,34.4s41.4-7.5,41.7-32.4v-94.9h33.3v160.6h-29.1l-4.2-12.6c-11.6,9.2-29.8,13.6-47.5,13.6-13.5,0-26.8-2.6-36.7-6.7-18.7-7.9-32.4-25.6-32.4-46.9v-107.9s33.3,0,33.3,0Z"/>
    <path class="st3" d="M124-1274.7l-4.2,11.9c-23.2-15.7-57.4-15.7-81.5-7.1-19.3,6.9-31.3,22.7-35.1,43-5.6,29.5-7.1,84.4,23.6,102.2,29.6,17.2,65.4,14.9,94.6-2.3v48.8H13.6v33.8h141v-230.2h-30.7ZM118.7-1170.5c-6,25.6-37.7,26.9-57.5,22.7-30.7-6.4-28.7-47.9-23.5-70.1,6.3-26.8,42.1-26.8,62.5-20.6,9.8,2.9,15,11.4,18.8,20.7,2.5,15.7,3.3,31.7-.4,47.4Z"/>
    <g>
      <g>
        <path class="st4" d="M-171-1284.3c0,5.2-4.2,9.4-9.4,9.4h-121.8c-2.5,0-4.9,1-6.6,2.7l-12,12c-1.8,1.8-2.7,4.1-2.7,6.6v116.4c0,2.5,1,4.9,2.7,6.6l14.4,14.4c1.8,1.8,4.1,2.7,6.6,2.7h119.5c5.2,0,9.4,4.2,9.4,9.4v24c0,5.2-4.2,9.4-9.4,9.4h-133.9c-5.2,0-9.4-4.2-9.4-9.4v-13.8c0-2.5-1-4.9-2.7-6.6l-10.2-10.2c-1.8-1.8-4.1-2.7-6.6-2.7h-13.3c-5.2,0-9.4-4.2-9.4-9.4v-142.8c0-5.2,4.2-9.4,9.4-9.4h10.9c2.5,0,4.9-1,6.6-2.7l12.6-12.6c1.8-1.8,2.7-4.1,2.7-6.6v-11.9c0-5.2,4.2-9.4,9.4-9.4h133.9c5.2,0,9.4,4.2,9.4,9.4v24.5Z"/>
        <rect class="st4" x="-275.1" y="-1216.3" width="104.1" height="43.8" rx="-564.4" ry="-564.4" transform="translate(779.2 -507.6) rotate(-45)"/>
      </g>
      <rect class="st4" x="-129.7" y="-1274.8" width="43.3" height="161.5" rx="-475.9" ry="-475.9"/>
    </g>
  </g>
  <g>
    <g>
      <path class="st3" d="M188.8-3722.4c0,7.6-6.2,13.8-13.8,13.8H-4.1c-3.7,0-7.2,1.5-9.8,4l-17.7,17.7c-2.6,2.6-4,6.1-4,9.8v171.1c0,3.7,1.5,7.2,4,9.8l21.1,21.1c2.6,2.6,6.1,4,9.8,4h175.6c7.6,0,13.8,6.2,13.8,13.8v35.2c0,7.6-6.2,13.8-13.8,13.8H-21.7c-7.6,0-13.8-6.2-13.8-13.8v-20.3c0-3.7-1.5-7.2-4-9.8l-15-15c-2.6-2.6-6.1-4-9.8-4h-19.5c-7.6,0-13.8-6.2-13.8-13.8v-209.9c0-7.6,6.2-13.8,13.8-13.8h16c3.7,0,7.2-1.5,9.8-4l18.5-18.5c2.6-2.6,4-6.1,4-9.8v-17.6c0-7.6,6.2-13.8,13.8-13.8h196.7c7.6,0,13.8,6.2,13.8,13.8v36Z"/>
      <rect class="st3" x="35.8" y="-3622.4" width="153.1" height="64.4" rx="-1746.8" ry="-1746.8" transform="translate(2571.6 -972.1) rotate(-45)"/>
    </g>
    <rect class="st3" x="249.5" y="-3708.4" width="63.6" height="237.4" rx="-1616.9" ry="-1616.9"/>
  </g>
  <rect class="st3" x="1845.3" y="-5272.7" width="1085" height="1085"/>
  <rect class="st4" x="-1574.7" y="-4132.7" width="1085" height="1085"/>
  <g>
    <g>
      <path class="st2" d="M-951.2-3722.4c0,7.6-6.2,13.8-13.8,13.8h-179.1c-3.7,0-7.2,1.5-9.8,4l-17.7,17.7c-2.6,2.6-4,6.1-4,9.8v171.1c0,3.7,1.5,7.2,4,9.8l21.1,21.1c2.6,2.6,6.1,4,9.8,4h175.6c7.6,0,13.8,6.2,13.8,13.8v35.2c0,7.6-6.2,13.8-13.8,13.8h-196.7c-7.6,0-13.8-6.2-13.8-13.8v-20.3c0-3.7-1.5-7.2-4-9.8l-15-15c-2.6-2.6-6.1-4-9.8-4h-19.5c-7.6,0-13.8-6.2-13.8-13.8v-209.9c0-7.6,6.2-13.8,13.8-13.8h16c3.7,0,7.2-1.5,9.8-4l18.5-18.5c2.6-2.6,4-6.1,4-9.8v-17.6c0-7.6,6.2-13.8,13.8-13.8h196.7c7.6,0,13.8,6.2,13.8,13.8v36Z"/>
      <rect class="st2" x="-1104.2" y="-3622.4" width="153.1" height="64.4" rx="-1746.8" ry="-1746.8" transform="translate(2237.7 -1778.3) rotate(-45)"/>
    </g>
    <rect class="st2" x="-890.5" y="-3708.4" width="63.6" height="237.4" rx="-1616.9" ry="-1616.9"/>
  </g>
  <rect class="st3" x="-2714.7" y="-4132.7" width="1085" height="1085"/>
  <g>
    <g>
      <path class="st4" d="M-2091.2-3722.4c0,7.6-6.2,13.8-13.8,13.8h-179.1c-3.7,0-7.2,1.5-9.8,4l-17.7,17.7c-2.6,2.6-4,6.1-4,9.8v171.1c0,3.7,1.5,7.2,4,9.8l21.1,21.1c2.6,2.6,6.1,4,9.8,4h175.6c7.6,0,13.8,6.2,13.8,13.8v35.2c0,7.6-6.2,13.8-13.8,13.8h-196.7c-7.6,0-13.8-6.2-13.8-13.8v-20.3c0-3.7-1.5-7.2-4-9.8l-15-15c-2.6-2.6-6.1-4-9.8-4h-19.5c-7.6,0-13.8-6.2-13.8-13.8v-209.9c0-7.6,6.2-13.8,13.8-13.8h16c3.7,0,7.2-1.5,9.8-4l18.5-18.5c2.6-2.6,4-6.1,4-9.8v-17.6c0-7.6,6.2-13.8,13.8-13.8h196.7c7.6,0,13.8,6.2,13.8,13.8v36Z"/>
      <rect class="st4" x="-2244.2" y="-3622.4" width="153.1" height="64.4" rx="-1746.8" ry="-1746.8" transform="translate(1903.8 -2584.4) rotate(-45)"/>
    </g>
    <rect class="st4" x="-2030.5" y="-3708.4" width="63.6" height="237.4" rx="-1616.9" ry="-1616.9"/>
  </g>
  <g>
    <g>
      <path class="st2" d="M2468.8-4862.4c0,7.6-6.2,13.8-13.8,13.8h-179.1c-3.7,0-7.2,1.5-9.8,4l-17.7,17.7c-2.6,2.6-4,6.1-4,9.8v171.1c0,3.7,1.5,7.2,4,9.8l21.1,21.1c2.6,2.6,6.1,4,9.8,4h175.6c7.6,0,13.8,6.2,13.8,13.8v35.2c0,7.6-6.2,13.8-13.8,13.8h-196.7c-7.6,0-13.8-6.2-13.8-13.8v-20.3c0-3.7-1.5-7.2-4-9.8l-15-15c-2.6-2.6-6.1-4-9.8-4h-19.5c-7.6,0-13.8-6.2-13.8-13.8v-209.9c0-7.6,6.2-13.8,13.8-13.8h16c3.7,0,7.2-1.5,9.8-4l18.5-18.5c2.6-2.6,4-6.1,4-9.8v-17.6c0-7.6,6.2-13.8,13.8-13.8h196.7c7.6,0,13.8,6.2,13.8,13.8v36Z"/>
      <rect class="st2" x="2315.8" y="-4762.4" width="153.1" height="64.4" rx="-2316.8" ry="-2316.8" transform="translate(4045.4 306.2) rotate(-45)"/>
    </g>
    <rect class="st2" x="2529.5" y="-4848.4" width="63.6" height="237.4" rx="-2186.9" ry="-2186.9"/>
  </g>
  <g>
    <g>
      <path class="st2" d="M2613.5-2854c0,13.4-10.8,24.2-24.2,24.2h-314c-6.4,0-12.6,2.5-17.1,7.1l-31,31c-4.5,4.5-7.1,10.7-7.1,17.1v300.1c0,6.4,2.5,12.6,7.1,17.1l37,37c4.5,4.5,10.7,7.1,17.1,7.1h307.9c13.4,0,24.2,10.8,24.2,24.2v61.8c0,13.4-10.8,24.2-24.2,24.2h-344.9c-13.4,0-24.2-10.8-24.2-24.2v-35.5c0-6.4-2.5-12.6-7.1-17.1l-26.3-26.3c-4.5-4.5-10.7-7.1-17.1-7.1h-34.2c-13.4,0-24.2-10.8-24.2-24.2v-368.1c0-13.4,10.8-24.2,24.2-24.2h28.1c6.4,0,12.6-2.5,17.1-7.1l32.4-32.4c4.5-4.5,7.1-10.7,7.1-17.1v-30.8c0-13.4,10.8-24.2,24.2-24.2h344.9c13.4,0,24.2,10.8,24.2,24.2v63.1Z"/>
      <rect class="st2" x="2345.1" y="-2678.7" width="268.3" height="112.8" rx="-1226.5" ry="-1226.5" transform="translate(2580.4 985.1) rotate(-45)"/>
    </g>
    <rect class="st2" x="2719.9" y="-2829.5" width="111.5" height="416.2" rx="-998.6" ry="-998.6"/>
  </g>
  <g>
    <g>
      <path class="st4" d="M2613.5-2122.9c0,13.4-10.8,24.2-24.2,24.2h-314c-6.4,0-12.6,2.5-17.1,7.1l-31,31c-4.5,4.5-7.1,10.7-7.1,17.1v300.1c0,6.4,2.5,12.6,7.1,17.1l37,37c4.5,4.5,10.7,7.1,17.1,7.1h307.9c13.4,0,24.2,10.8,24.2,24.2v61.8c0,13.4-10.8,24.2-24.2,24.2h-344.9c-13.4,0-24.2-10.8-24.2-24.2v-35.5c0-6.4-2.5-12.6-7.1-17.1l-26.3-26.3c-4.5-4.5-10.7-7.1-17.1-7.1h-34.2c-13.4,0-24.2-10.8-24.2-24.2v-368.1c0-13.4,10.8-24.2,24.2-24.2h28.1c6.4,0,12.6-2.5,17.1-7.1l32.4-32.4c4.5-4.5,7.1-10.7,7.1-17.1v-30.8c0-13.4,10.8-24.2,24.2-24.2h344.9c13.4,0,24.2,10.8,24.2,24.2v63.1Z"/>
      <rect class="st4" x="2345.1" y="-1947.6" width="268.3" height="112.8" rx="-860.9" ry="-860.9" transform="translate(2063.4 1199.2) rotate(-45)"/>
    </g>
    <rect class="st4" x="2719.9" y="-2098.4" width="111.5" height="416.2" rx="-633.1" ry="-633.1"/>
  </g>
  <g>
    <g>
      <path class="st3" d="M2613.5-1391.8c0,13.4-10.8,24.2-24.2,24.2h-314c-6.4,0-12.6,2.5-17.1,7.1l-31,31c-4.5,4.5-7.1,10.7-7.1,17.1v300.1c0,6.4,2.5,12.6,7.1,17.1l37,37c4.5,4.5,10.7,7.1,17.1,7.1h307.9c13.4,0,24.2,10.8,24.2,24.2v61.8c0,13.4-10.8,24.2-24.2,24.2h-344.9c-13.4,0-24.2-10.8-24.2-24.2v-35.5c0-6.4-2.5-12.6-7.1-17.1l-26.3-26.3c-4.5-4.5-10.7-7.1-17.1-7.1h-34.2c-13.4,0-24.2-10.8-24.2-24.2v-368.1c0-13.4,10.8-24.2,24.2-24.2h28.1c6.4,0,12.6-2.5,17.1-7.1l32.4-32.4c4.5-4.5,7.1-10.7,7.1-17.1v-30.8c0-13.4,10.8-24.2,24.2-24.2h344.9c13.4,0,24.2,10.8,24.2,24.2v63.1Z"/>
      <rect class="st3" x="2345.1" y="-1216.5" width="268.3" height="112.8" rx="-495.4" ry="-495.4" transform="translate(1546.4 1413.4) rotate(-45)"/>
    </g>
    <rect class="st3" x="2719.9" y="-1367.3" width="111.5" height="416.2" rx="-267.5" ry="-267.5"/>
  </g>
  <path class="st4" d="M1432.8-2888v48.5c29.1-17.3,65-19.5,94.6-2.3,30.7,17.8,29.2,72.8,23.6,102.2-3.9,20.3-15.9,36-35.1,43-24.1,8.6-58.3,8.6-81.5-7.1l-4.2,11.9h-30.7v-221.3h33.3v25.1ZM1435.5-2796c-3.7,15.6-2.9,31.6-.4,47.4,3.9,9.3,9,17.7,18.8,20.7,20.5,6.1,56.2,6.1,62.5-20.6,5.3-22.1,7.2-63.6-23.5-70.1-19.8-4.2-51.5-2.9-57.5,22.7Z"/>
  <path class="st4" d="M927.7-2691.9v-92.8c0-27.3-23.9-34.4-41.7-34.4s-41.4,7.5-41.7,32.4v94.9h-33.3v-221.3h33.3v73.3c11.6-9.2,29.8-13.6,47.5-13.6,13.5,0,26.8,2.6,36.7,6.7,18.7,7.9,32.4,25.6,32.4,46.9v107.9s-33.3,0-33.3,0Z"/>
  <polygon class="st4" points="216.9 -2818.7 216.9 -2691.9 183.7 -2691.9 183.7 -2852.5 286.7 -2852.5 286.7 -2818.7 216.9 -2818.7"/>
  <path class="st4" d="M375.5-2853.5h-22c-35.9,0-65,29.1-65,65v32.5c0,35.9,29.1,65,65,65h22c35.9,0,65-29.1,65-65v-32.5c0-35.9-29.1-65-65-65ZM408.1-2762.9c0,20.6-16.7,37.3-37.3,37.3h-12.7c-20.6,0-37.3-16.7-37.3-37.3v-18.6c0-20.6,16.7-37.3,37.3-37.3h12.7c20.6,0,37.3,16.7,37.3,37.3v18.6Z"/>
  <polygon class="st4" points="643.1 -2852.5 615.8 -2729.3 593.8 -2852.5 563 -2852.5 532.2 -2852.5 510.2 -2729.3 482.9 -2852.5 446.7 -2852.5 482.2 -2691.9 540.7 -2691.9 563 -2817.5 585.3 -2691.9 643.8 -2691.9 679.3 -2852.5 643.1 -2852.5"/>
  <path class="st4" d="M789.5-2725.7v33.8h-32.3c-23.3,0-42.1-18.8-42.1-42.1v-84.8h-23.1v-33.8h23.1v-43.8h33.3v43.8h41.1v33.8h-41.1v72.6c0,11.3,9.2,20.5,20.5,20.5h20.6Z"/>
  <path class="st4" d="M1162.9-2691.9v-92.8c0-27.3-23.9-34.4-41.7-34.4s-41.4,7.5-41.7,32.4v94.9h-33.3v-221.3h33.3v73.3c11.6-9.2,29.8-13.6,47.5-13.6,13.5,0,26.8,2.6,36.7,6.7,18.7,7.9,32.4,25.6,32.4,46.9v107.9s-33.3,0-33.3,0Z"/>
  <path class="st4" d="M1255.3-2852.4v92.8c0,27.3,23.9,34.4,41.7,34.4s41.4-7.5,41.7-32.4v-94.9h33.3v160.6h-29.1l-4.2-12.6c-11.6,9.2-29.8,13.6-47.5,13.6-13.5,0-26.8-2.6-36.7-6.7-18.7-7.9-32.4-25.6-32.4-46.9v-107.9s33.3,0,33.3,0Z"/>
  <path class="st4" d="M124-2852.5l-4.2,11.9c-23.2-15.7-57.4-15.7-81.5-7.1-19.3,6.9-31.3,22.7-35.1,43-5.6,29.5-7.1,84.4,23.6,102.2,29.6,17.2,65.4,14.9,94.6-2.3v48.8H13.6v33.8h141v-230.2h-30.7ZM118.7-2748.3c-6,25.6-37.7,26.9-57.5,22.7-30.7-6.4-28.7-47.9-23.5-70.1,6.3-26.8,42.1-26.8,62.5-20.6,9.8,2.9,15,11.4,18.8,20.7,2.5,15.7,3.3,31.7-.4,47.4Z"/>
  <path class="st4" d="M1432.8-2572.4v48.5c29.1-17.3,65-19.5,94.6-2.3,30.7,17.8,29.2,72.8,23.6,102.2-3.9,20.3-15.9,36-35.1,43-24.1,8.6-58.3,8.6-81.5-7.1l-4.2,11.9h-30.7v-221.3h33.3v25.1ZM1435.5-2480.4c-3.7,15.6-2.9,31.6-.4,47.4,3.9,9.3,9,17.7,18.8,20.7,20.5,6.1,56.2,6.1,62.5-20.6,5.3-22.1,7.2-63.6-23.5-70.1-19.8-4.2-51.5-2.9-57.5,22.7Z"/>
  <path class="st4" d="M927.7-2376.3v-92.8c0-27.3-23.9-34.4-41.7-34.4s-41.4,7.5-41.7,32.4v94.9h-33.3v-221.3h33.3v73.3c11.6-9.2,29.8-13.6,47.5-13.6,13.5,0,26.8,2.6,36.7,6.7,18.7,7.9,32.4,25.6,32.4,46.9v107.9s-33.3,0-33.3,0Z"/>
  <polygon class="st4" points="216.9 -2503.2 216.9 -2376.3 183.7 -2376.3 183.7 -2537 286.7 -2537 286.7 -2503.2 216.9 -2503.2"/>
  <path class="st4" d="M375.5-2537.9h-22c-35.9,0-65,29.1-65,65v32.5c0,35.9,29.1,65,65,65h22c35.9,0,65-29.1,65-65v-32.5c0-35.9-29.1-65-65-65ZM408.1-2447.3c0,20.6-16.7,37.3-37.3,37.3h-12.7c-20.6,0-37.3-16.7-37.3-37.3v-18.6c0-20.6,16.7-37.3,37.3-37.3h12.7c20.6,0,37.3,16.7,37.3,37.3v18.6Z"/>
  <polygon class="st4" points="643.1 -2537 615.8 -2413.8 593.8 -2537 563 -2537 532.2 -2537 510.2 -2413.8 482.9 -2537 446.7 -2537 482.2 -2376.3 540.7 -2376.3 563 -2502 585.3 -2376.3 643.8 -2376.3 679.3 -2537 643.1 -2537"/>
  <path class="st4" d="M789.5-2410.1v33.8h-32.3c-23.3,0-42.1-18.8-42.1-42.1v-84.8h-23.1v-33.8h23.1v-43.8h33.3v43.8h41.1v33.8h-41.1v72.6c0,11.3,9.2,20.5,20.5,20.5h20.6Z"/>
  <path class="st4" d="M1162.9-2376.3v-92.8c0-27.3-23.9-34.4-41.7-34.4s-41.4,7.5-41.7,32.4v94.9h-33.3v-221.3h33.3v73.3c11.6-9.2,29.8-13.6,47.5-13.6,13.5,0,26.8,2.6,36.7,6.7,18.7,7.9,32.4,25.6,32.4,46.9v107.9s-33.3,0-33.3,0Z"/>
  <path class="st4" d="M1255.3-2536.9v92.8c0,27.3,23.9,34.4,41.7,34.4s41.4-7.5,41.7-32.4v-94.9h33.3v160.6h-29.1l-4.2-12.6c-11.6,9.2-29.8,13.6-47.5,13.6-13.5,0-26.8-2.6-36.7-6.7-18.7-7.9-32.4-25.6-32.4-46.9v-107.9s33.3,0,33.3,0Z"/>
  <path class="st4" d="M124-2536.9l-4.2,11.9c-23.2-15.7-57.4-15.7-81.5-7.1-19.3,6.9-31.3,22.7-35.1,43-5.6,29.5-7.1,84.4,23.6,102.2,29.6,17.2,65.4,14.9,94.6-2.3v48.8H13.6v33.8h141v-230.2h-30.7ZM118.7-2432.8c-6,25.6-37.7,26.9-57.5,22.7-30.7-6.4-28.7-47.9-23.5-70.1,6.3-26.8,42.1-26.8,62.5-20.6,9.8,2.9,15,11.4,18.8,20.7,2.5,15.7,3.3,31.7-.4,47.4Z"/>
  <path class="st4" d="M1432.8-2256.9v48.5c29.1-17.3,65-19.5,94.6-2.3,30.7,17.8,29.2,72.8,23.6,102.2-3.9,20.3-15.9,36-35.1,43-24.1,8.6-58.3,8.6-81.5-7.1l-4.2,11.9h-30.7v-221.3h33.3v25.1ZM1435.5-2164.9c-3.7,15.6-2.9,31.6-.4,47.4,3.9,9.3,9,17.7,18.8,20.7,20.5,6.1,56.2,6.1,62.5-20.6,5.3-22.1,7.2-63.6-23.5-70.1-19.8-4.2-51.5-2.9-57.5,22.7Z"/>
  <path class="st4" d="M927.7-2060.7v-92.8c0-27.3-23.9-34.4-41.7-34.4s-41.4,7.5-41.7,32.4v94.9h-33.3v-221.3h33.3v73.3c11.6-9.2,29.8-13.6,47.5-13.6,13.5,0,26.8,2.6,36.7,6.7,18.7,7.9,32.4,25.6,32.4,46.9v107.9s-33.3,0-33.3,0Z"/>
  <polygon class="st4" points="216.9 -2187.6 216.9 -2060.7 183.7 -2060.7 183.7 -2221.4 286.7 -2221.4 286.7 -2187.6 216.9 -2187.6"/>
  <path class="st4" d="M375.5-2222.3h-22c-35.9,0-65,29.1-65,65v32.5c0,35.9,29.1,65,65,65h22c35.9,0,65-29.1,65-65v-32.5c0-35.9-29.1-65-65-65ZM408.1-2131.8c0,20.6-16.7,37.3-37.3,37.3h-12.7c-20.6,0-37.3-16.7-37.3-37.3v-18.6c0-20.6,16.7-37.3,37.3-37.3h12.7c20.6,0,37.3,16.7,37.3,37.3v18.6Z"/>
  <polygon class="st4" points="643.1 -2221.4 615.8 -2098.2 593.8 -2221.4 563 -2221.4 532.2 -2221.4 510.2 -2098.2 482.9 -2221.4 446.7 -2221.4 482.2 -2060.7 540.7 -2060.7 563 -2186.4 585.3 -2060.7 643.8 -2060.7 679.3 -2221.4 643.1 -2221.4"/>
  <path class="st4" d="M789.5-2094.5v33.8h-32.3c-23.3,0-42.1-18.8-42.1-42.1v-84.8h-23.1v-33.8h23.1v-43.8h33.3v43.8h41.1v33.8h-41.1v72.6c0,11.3,9.2,20.5,20.5,20.5h20.6Z"/>
  <path class="st4" d="M1162.9-2060.7v-92.8c0-27.3-23.9-34.4-41.7-34.4s-41.4,7.5-41.7,32.4v94.9h-33.3v-221.3h33.3v73.3c11.6-9.2,29.8-13.6,47.5-13.6,13.5,0,26.8,2.6,36.7,6.7,18.7,7.9,32.4,25.6,32.4,46.9v107.9s-33.3,0-33.3,0Z"/>
  <path class="st4" d="M1255.3-2221.3v92.8c0,27.3,23.9,34.4,41.7,34.4s41.4-7.5,41.7-32.4v-94.9h33.3v160.6h-29.1l-4.2-12.6c-11.6,9.2-29.8,13.6-47.5,13.6-13.5,0-26.8-2.6-36.7-6.7-18.7-7.9-32.4-25.6-32.4-46.9v-107.9s33.3,0,33.3,0Z"/>
  <path class="st4" d="M124-2221.4l-4.2,11.9c-23.2-15.7-57.4-15.7-81.5-7.1-19.3,6.9-31.3,22.7-35.1,43-5.6,29.5-7.1,84.4,23.6,102.2,29.6,17.2,65.4,14.9,94.6-2.3v48.8H13.6v33.8h141v-230.2h-30.7ZM118.7-2117.2c-6,25.6-37.7,26.9-57.5,22.7-30.7-6.4-28.7-47.9-23.5-70.1,6.3-26.8,42.1-26.8,62.5-20.6,9.8,2.9,15,11.4,18.8,20.7,2.5,15.7,3.3,31.7-.4,47.4Z"/>
  <path class="st4" d="M1432.8-1941.3v48.5c29.1-17.3,65-19.5,94.6-2.3,30.7,17.8,29.2,72.8,23.6,102.2-3.9,20.3-15.9,36-35.1,43-24.1,8.6-58.3,8.6-81.5-7.1l-4.2,11.9h-30.7v-221.3h33.3v25.1ZM1435.5-1849.3c-3.7,15.6-2.9,31.6-.4,47.4,3.9,9.3,9,17.7,18.8,20.7,20.5,6.1,56.2,6.1,62.5-20.6,5.3-22.1,7.2-63.6-23.5-70.1-19.8-4.2-51.5-2.9-57.5,22.7Z"/>
  <path class="st4" d="M927.7-1745.2v-92.8c0-27.3-23.9-34.4-41.7-34.4s-41.4,7.5-41.7,32.4v94.9h-33.3v-221.3h33.3v73.3c11.6-9.2,29.8-13.6,47.5-13.6,13.5,0,26.8,2.6,36.7,6.7,18.7,7.9,32.4,25.6,32.4,46.9v107.9s-33.3,0-33.3,0Z"/>
  <polygon class="st4" points="216.9 -1872 216.9 -1745.2 183.7 -1745.2 183.7 -1905.8 286.7 -1905.8 286.7 -1872 216.9 -1872"/>
  <path class="st4" d="M375.5-1906.8h-22c-35.9,0-65,29.1-65,65v32.5c0,35.9,29.1,65,65,65h22c35.9,0,65-29.1,65-65v-32.5c0-35.9-29.1-65-65-65ZM408.1-1816.2c0,20.6-16.7,37.3-37.3,37.3h-12.7c-20.6,0-37.3-16.7-37.3-37.3v-18.6c0-20.6,16.7-37.3,37.3-37.3h12.7c20.6,0,37.3,16.7,37.3,37.3v18.6Z"/>
  <polygon class="st4" points="643.1 -1905.8 615.8 -1782.7 593.8 -1905.8 563 -1905.8 532.2 -1905.8 510.2 -1782.7 482.9 -1905.8 446.7 -1905.8 482.2 -1745.2 540.7 -1745.2 563 -1870.9 585.3 -1745.2 643.8 -1745.2 679.3 -1905.8 643.1 -1905.8"/>
  <path class="st4" d="M789.5-1779v33.8h-32.3c-23.3,0-42.1-18.8-42.1-42.1v-84.8h-23.1v-33.8h23.1v-43.8h33.3v43.8h41.1v33.8h-41.1v72.6c0,11.3,9.2,20.5,20.5,20.5h20.6Z"/>
  <path class="st4" d="M1162.9-1745.2v-92.8c0-27.3-23.9-34.4-41.7-34.4s-41.4,7.5-41.7,32.4v94.9h-33.3v-221.3h33.3v73.3c11.6-9.2,29.8-13.6,47.5-13.6,13.5,0,26.8,2.6,36.7,6.7,18.7,7.9,32.4,25.6,32.4,46.9v107.9s-33.3,0-33.3,0Z"/>
  <path class="st4" d="M1255.3-1905.8v92.8c0,27.3,23.9,34.4,41.7,34.4s41.4-7.5,41.7-32.4v-94.9h33.3v160.6h-29.1l-4.2-12.6c-11.6,9.2-29.8,13.6-47.5,13.6-13.5,0-26.8-2.6-36.7-6.7-18.7-7.9-32.4-25.6-32.4-46.9v-107.9s33.3,0,33.3,0Z"/>
  <path class="st4" d="M124-1905.8l-4.2,11.9c-23.2-15.7-57.4-15.7-81.5-7.1-19.3,6.9-31.3,22.7-35.1,43-5.6,29.5-7.1,84.4,23.6,102.2,29.6,17.2,65.4,14.9,94.6-2.3v48.8H13.6v33.8h141v-230.2h-30.7ZM118.7-1801.7c-6,25.6-37.7,26.9-57.5,22.7-30.7-6.4-28.7-47.9-23.5-70.1,6.3-26.8,42.1-26.8,62.5-20.6,9.8,2.9,15,11.4,18.8,20.7,2.5,15.7,3.3,31.7-.4,47.4Z"/>
  <g>
    <path class="st3" d="M1432.8,25.1v48.5c29.1-17.3,65-19.5,94.6-2.3,30.7,17.8,29.2,72.8,23.6,102.2-3.9,20.3-15.9,36-35.1,43-24.1,8.6-58.3,8.6-81.5-7.1l-4.2,11.9h-30.7V0h33.3v25.1ZM1435.5,117.1c-3.7,15.6-2.9,31.6-.4,47.4,3.9,9.3,9,17.7,18.8,20.7,20.5,6.1,56.2,6.1,62.5-20.6,5.3-22.1,7.2-63.6-23.5-70.1-19.8-4.2-51.5-2.9-57.5,22.7Z"/>
    <path class="st3" d="M927.7,221.3v-92.8c0-27.3-23.9-34.4-41.7-34.4s-41.4,7.5-41.7,32.4v94.9h-33.3V0h33.3v73.3c11.6-9.2,29.8-13.6,47.5-13.6,13.5,0,26.8,2.6,36.7,6.7,18.7,7.9,32.4,25.6,32.4,46.9v107.9s-33.3,0-33.3,0Z"/>
    <polygon class="st3" points="216.9 94.4 216.9 221.3 183.7 221.3 183.7 60.6 286.7 60.6 286.7 94.4 216.9 94.4"/>
    <path class="st3" d="M375.5,59.7h-22c-35.9,0-65,29.1-65,65v32.5c0,35.9,29.1,65,65,65h22c35.9,0,65-29.1,65-65v-32.5c0-35.9-29.1-65-65-65ZM408.1,150.2c0,20.6-16.7,37.3-37.3,37.3h-12.7c-20.6,0-37.3-16.7-37.3-37.3v-18.6c0-20.6,16.7-37.3,37.3-37.3h12.7c20.6,0,37.3,16.7,37.3,37.3v18.6Z"/>
    <polygon class="st3" points="643.1 60.6 615.8 183.8 593.8 60.6 563 60.6 532.2 60.6 510.2 183.8 482.9 60.6 446.7 60.6 482.2 221.3 540.7 221.3 563 95.6 585.3 221.3 643.8 221.3 679.3 60.6 643.1 60.6"/>
    <path class="st3" d="M789.5,187.5v33.8h-32.3c-23.3,0-42.1-18.8-42.1-42.1v-84.8h-23.1v-33.8h23.1V16.8h33.3v43.8h41.1v33.8h-41.1v72.6c0,11.3,9.2,20.5,20.5,20.5h20.6Z"/>
    <path class="st3" d="M1162.9,221.3v-92.8c0-27.3-23.9-34.4-41.7-34.4s-41.4,7.5-41.7,32.4v94.9h-33.3V0h33.3v73.3c11.6-9.2,29.8-13.6,47.5-13.6,13.5,0,26.8,2.6,36.7,6.7,18.7,7.9,32.4,25.6,32.4,46.9v107.9s-33.3,0-33.3,0Z"/>
    <path class="st3" d="M1255.3,60.7v92.8c0,27.3,23.9,34.4,41.7,34.4s41.4-7.5,41.7-32.4V60.7h33.3v160.6h-29.1l-4.2-12.6c-11.6,9.2-29.8,13.6-47.5,13.6-13.5,0-26.8-2.6-36.7-6.7-18.7-7.9-32.4-25.6-32.4-46.9V60.7s33.3,0,33.3,0Z"/>
    <path class="st3" d="M124,60.6l-4.2,11.9c-23.2-15.7-57.4-15.7-81.5-7.1-19.3,6.9-31.3,22.7-35.1,43-5.6,29.5-7.1,84.4,23.6,102.2,29.6,17.2,65.4,14.9,94.6-2.3v48.8H13.6v33.8h141V60.6h-30.7ZM118.7,164.8c-6,25.6-37.7,26.9-57.5,22.7-30.7-6.4-28.7-47.9-23.5-70.1,6.3-26.8,42.1-26.8,62.5-20.6,9.8,2.9,15,11.4,18.8,20.7,2.5,15.7,3.3,31.7-.4,47.4Z"/>
  </g>
  <g>
    <path class="st2" d="M1432.8-384.5v48.5c29.1-17.3,65-19.5,94.6-2.3,30.7,17.8,29.2,72.8,23.6,102.2-3.9,20.3-15.9,36-35.1,43-24.1,8.6-58.3,8.6-81.5-7.1l-4.2,11.9h-30.7v-221.3h33.3v25.1ZM1435.5-292.5c-3.7,15.6-2.9,31.6-.4,47.4,3.9,9.3,9,17.7,18.8,20.7,20.5,6.1,56.2,6.1,62.5-20.6,5.3-22.1,7.2-63.6-23.5-70.1-19.8-4.2-51.5-2.9-57.5,22.7Z"/>
    <path class="st2" d="M927.7-188.3v-92.8c0-27.3-23.9-34.4-41.7-34.4s-41.4,7.5-41.7,32.4v94.9h-33.3v-221.3h33.3v73.3c11.6-9.2,29.8-13.6,47.5-13.6,13.5,0,26.8,2.6,36.7,6.7,18.7,7.9,32.4,25.6,32.4,46.9v107.9s-33.3,0-33.3,0Z"/>
    <polygon class="st2" points="216.9 -315.2 216.9 -188.3 183.7 -188.3 183.7 -349 286.7 -349 286.7 -315.2 216.9 -315.2"/>
    <path class="st2" d="M375.5-349.9h-22c-35.9,0-65,29.1-65,65v32.5c0,35.9,29.1,65,65,65h22c35.9,0,65-29.1,65-65v-32.5c0-35.9-29.1-65-65-65ZM408.1-259.4c0,20.6-16.7,37.3-37.3,37.3h-12.7c-20.6,0-37.3-16.7-37.3-37.3v-18.6c0-20.6,16.7-37.3,37.3-37.3h12.7c20.6,0,37.3,16.7,37.3,37.3v18.6Z"/>
    <polygon class="st2" points="643.1 -349 615.8 -225.8 593.8 -349 563 -349 532.2 -349 510.2 -225.8 482.9 -349 446.7 -349 482.2 -188.3 540.7 -188.3 563 -314 585.3 -188.3 643.8 -188.3 679.3 -349 643.1 -349"/>
    <path class="st2" d="M789.5-222.1v33.8h-32.3c-23.3,0-42.1-18.8-42.1-42.1v-84.8h-23.1v-33.8h23.1v-43.8h33.3v43.8h41.1v33.8h-41.1v72.6c0,11.3,9.2,20.5,20.5,20.5h20.6Z"/>
    <path class="st2" d="M1162.9-188.3v-92.8c0-27.3-23.9-34.4-41.7-34.4s-41.4,7.5-41.7,32.4v94.9h-33.3v-221.3h33.3v73.3c11.6-9.2,29.8-13.6,47.5-13.6,13.5,0,26.8,2.6,36.7,6.7,18.7,7.9,32.4,25.6,32.4,46.9v107.9s-33.3,0-33.3,0Z"/>
    <path class="st2" d="M1255.3-348.9v92.8c0,27.3,23.9,34.4,41.7,34.4s41.4-7.5,41.7-32.4v-94.9h33.3v160.6h-29.1l-4.2-12.6c-11.6,9.2-29.8,13.6-47.5,13.6-13.5,0-26.8-2.6-36.7-6.7-18.7-7.9-32.4-25.6-32.4-46.9v-107.9s33.3,0,33.3,0Z"/>
    <path class="st2" d="M124-349l-4.2,11.9c-23.2-15.7-57.4-15.7-81.5-7.1-19.3,6.9-31.3,22.7-35.1,43-5.6,29.5-7.1,84.4,23.6,102.2,29.6,17.2,65.4,14.9,94.6-2.3v48.8H13.6v33.8h141v-230.2h-30.7ZM118.7-244.8c-6,25.6-37.7,26.9-57.5,22.7-30.7-6.4-28.7-47.9-23.5-70.1,6.3-26.8,42.1-26.8,62.5-20.6,9.8,2.9,15,11.4,18.8,20.7,2.5,15.7,3.3,31.7-.4,47.4Z"/>
  </g>
  <g>
    <path class="st4" d="M1432.8-747v48.5c29.1-17.3,65-19.5,94.6-2.3,30.7,17.8,29.2,72.8,23.6,102.2-3.9,20.3-15.9,36-35.1,43-24.1,8.6-58.3,8.6-81.5-7.1l-4.2,11.9h-30.7v-221.3h33.3v25.1ZM1435.5-655c-3.7,15.6-2.9,31.6-.4,47.4,3.9,9.3,9,17.7,18.8,20.7,20.5,6.1,56.2,6.1,62.5-20.6,5.3-22.1,7.2-63.6-23.5-70.1-19.8-4.2-51.5-2.9-57.5,22.7Z"/>
    <path class="st4" d="M927.7-550.9v-92.8c0-27.3-23.9-34.4-41.7-34.4s-41.4,7.5-41.7,32.4v94.9h-33.3v-221.3h33.3v73.3c11.6-9.2,29.8-13.6,47.5-13.6,13.5,0,26.8,2.6,36.7,6.7,18.7,7.9,32.4,25.6,32.4,46.9v107.9s-33.3,0-33.3,0Z"/>
    <polygon class="st4" points="216.9 -677.7 216.9 -550.9 183.7 -550.9 183.7 -711.5 286.7 -711.5 286.7 -677.7 216.9 -677.7"/>
    <path class="st4" d="M375.5-712.5h-22c-35.9,0-65,29.1-65,65v32.5c0,35.9,29.1,65,65,65h22c35.9,0,65-29.1,65-65v-32.5c0-35.9-29.1-65-65-65ZM408.1-621.9c0,20.6-16.7,37.3-37.3,37.3h-12.7c-20.6,0-37.3-16.7-37.3-37.3v-18.6c0-20.6,16.7-37.3,37.3-37.3h12.7c20.6,0,37.3,16.7,37.3,37.3v18.6Z"/>
    <polygon class="st4" points="643.1 -711.5 615.8 -588.4 593.8 -711.5 563 -711.5 532.2 -711.5 510.2 -588.4 482.9 -711.5 446.7 -711.5 482.2 -550.9 540.7 -550.9 563 -676.6 585.3 -550.9 643.8 -550.9 679.3 -711.5 643.1 -711.5"/>
    <path class="st4" d="M789.5-584.7v33.8h-32.3c-23.3,0-42.1-18.8-42.1-42.1v-84.8h-23.1v-33.8h23.1v-43.8h33.3v43.8h41.1v33.8h-41.1v72.6c0,11.3,9.2,20.5,20.5,20.5h20.6Z"/>
    <path class="st4" d="M1162.9-550.9v-92.8c0-27.3-23.9-34.4-41.7-34.4s-41.4,7.5-41.7,32.4v94.9h-33.3v-221.3h33.3v73.3c11.6-9.2,29.8-13.6,47.5-13.6,13.5,0,26.8,2.6,36.7,6.7,18.7,7.9,32.4,25.6,32.4,46.9v107.9s-33.3,0-33.3,0Z"/>
    <path class="st4" d="M1255.3-711.5v92.8c0,27.3,23.9,34.4,41.7,34.4s41.4-7.5,41.7-32.4v-94.9h33.3v160.6h-29.1l-4.2-12.6c-11.6,9.2-29.8,13.6-47.5,13.6-13.5,0-26.8-2.6-36.7-6.7-18.7-7.9-32.4-25.6-32.4-46.9v-107.9s33.3,0,33.3,0Z"/>
    <path class="st4" d="M124-711.5l-4.2,11.9c-23.2-15.7-57.4-15.7-81.5-7.1-19.3,6.9-31.3,22.7-35.1,43-5.6,29.5-7.1,84.4,23.6,102.2,29.6,17.2,65.4,14.9,94.6-2.3v48.8H13.6v33.8h141v-230.2h-30.7ZM118.7-607.4c-6,25.6-37.7,26.9-57.5,22.7-30.7-6.4-28.7-47.9-23.5-70.1,6.3-26.8,42.1-26.8,62.5-20.6,9.8,2.9,15,11.4,18.8,20.7,2.5,15.7,3.3,31.7-.4,47.4Z"/>
  </g>
</svg>